<?xml version="1.0" encoding="UTF-8" standalone="no"?>
<svg
   xmlns:dc="http://purl.org/dc/elements/1.1/"
   xmlns:cc="http://creativecommons.org/ns#"
   xmlns:rdf="http://www.w3.org/1999/02/22-rdf-syntax-ns#"
   xmlns:svg="http://www.w3.org/2000/svg"
   xmlns="http://www.w3.org/2000/svg"
   viewBox="0 0 500.00001 543.47456"
   id="svg13"
   height="543.47455"
   width="500"
   version="1.1">
  <metadata
     id="metadata19">
    <rdf:RDF>
      <cc:Work
         rdf:about="">
        <dc:format>image/svg+xml</dc:format>
        <dc:type
           rdf:resource="http://purl.org/dc/dcmitype/StillImage" />
        <dc:title></dc:title>
      </cc:Work>
    </rdf:RDF>
  </metadata>
  <defs
     id="defs17" />
  <g
     transform="matrix(10.718045,0,0,10.718045,-1945.965,-1211.5217)"
     id="Layer1000">
    <path
       id="path6"
       style="fill:#73b61c;fill-rule:evenodd"
       d="m 207.9272,159.6617 v 2.0523 h 4.0564 v 2.0282 h -6.0846 v -4.0805 c -4.7551,-0.2231 -9.1032,-2.0058 -12.543,-4.8481 l 1.4414,-1.4411 c 3.31,2.6798 7.5252,4.2851 12.1156,4.2851 4.5893,0 8.8038,-1.6047 12.113,-4.2829 l 1.438,1.4434 c -3.439,2.8395 -7.7842,4.6208 -12.5368,4.8436 z m 13.9669,-9.1542 c 2.681,-3.3103 4.2877,-7.5268 4.2877,-12.1187 0,-5.3209 -2.1569,-10.1381 -5.6438,-13.625 -3.0379,-3.0379 -7.0861,-5.0658 -11.5971,-5.5378 v -2.0381 c 5.0714,0.4794 9.6256,2.7363 13.0311,6.1419 3.854,3.8542 6.238,9.1785 6.238,15.059 0,5.1531 -1.8307,9.8793 -4.8768,13.5629 z m -17.009,-31.2815 c -3.8002,0.3977 -7.272,1.8995 -10.088,4.1794 l -1.4414,-1.4414 c 3.1938,-2.639 7.1705,-4.3645 11.5294,-4.7763 z m -14.3969,32.7201 c -2.6391,-3.1938 -4.3642,-7.1703 -4.7761,-11.5294 h 2.0381 c 0.3977,3.8004 1.8995,7.2717 4.1794,10.088 z m -4.7761,-15.5852 c 0.4119,-4.3585 2.1368,-8.3355 4.7758,-11.5293 l 1.4414,1.4414 c -2.2796,2.8162 -3.7814,6.2875 -4.1791,10.0879 z" />
    <path
       id="path8"
       style="fill:#006ab3;fill-rule:evenodd"
       d="m 219.081,149.1231 c 2.1588,2.1585 4.3174,4.3171 6.4763,6.476 l -1.4341,1.434 c -2.1585,-2.1588 -4.3174,-4.3174 -6.4763,-6.4763 -2.8601,2.5254 -6.6183,4.0584 -10.7339,4.0584 -3.7497,0 -7.2023,-1.2728 -9.9499,-3.4087 l 1.4465,-1.4465 c 2.3703,1.7751 5.3141,2.827 8.5034,2.827 3.9206,0 7.4704,-1.5897 10.0394,-4.1584 2.5691,-2.5694 4.1585,-6.1189 4.1585,-10.0398 0,-3.9206 -1.5894,-7.4704 -4.1585,-10.0394 -2.569,-2.5691 -6.1188,-4.1585 -10.0394,-4.1585 -3.1893,0 -6.1331,1.0517 -8.5034,2.827 l -1.4468,-1.4468 c 2.4979,-1.9423 5.5789,-3.1702 8.9362,-3.3772 0,-3.0526 0,-6.1055 0,-9.1582 h 2.0279 c 0,3.053 3e-4,6.1053 3e-4,9.1582 4.0765,0.2517 7.7462,2.0087 10.4593,4.7217 2.9361,2.9358 4.7526,6.9928 4.7526,11.4732 0,4.1156 -1.5327,7.8735 -4.0581,10.7343 z m -24.9857,-0.7841 c -1.745,-2.2445 -2.9135,-4.9592 -3.2828,-7.9223 h 2.0466 c 0.3441,2.4058 1.2909,4.6168 2.683,6.4755 z m -3.2828,-11.9781 c 0.3693,-2.963 1.5381,-5.6778 3.2828,-7.922 l 1.4468,1.4468 c -1.3918,1.8584 -2.3389,4.0694 -2.683,6.4752 z" />
    <path
       id="path10"
       style="fill:#9b9d9f;fill-rule:evenodd"
       d="m 206.9131,127.2335 c 3.0799,0 5.8694,1.2488 7.8879,3.2675 2.0185,2.0185 3.2675,4.8076 3.2675,7.8879 0,3.0804 -1.249,5.8694 -3.2675,7.888 -2.0185,2.0185 -4.8076,3.2675 -7.8879,3.2675 -2.7153,0 -5.204,-0.9707 -7.1383,-2.5832 l -10.0722,10.0722 -1.434,-1.434 10.0722,-10.0722 c -1.4097,-1.6907 -2.3285,-3.8054 -2.5376,-6.1241 h -14.2435 v -2.0283 h 14.2435 c 0.2091,-2.3187 1.1281,-4.4332 2.5376,-6.1241 l -10.0722,-10.0722 1.434,-1.434 10.0722,10.0722 c 1.9343,-1.6127 4.4234,-2.5832 7.1383,-2.5832 z m 6.4539,4.7015 c -1.6514,-1.6516 -3.9334,-2.6733 -6.4539,-2.6733 -2.5206,0 -4.8026,1.0217 -6.454,2.6733 -1.6516,1.6514 -2.6733,3.9334 -2.6733,6.4539 0,2.5206 1.0217,4.8026 2.6733,6.454 1.6514,1.6514 3.9336,2.6732 6.454,2.6732 2.5203,0 4.8025,-1.0218 6.4539,-2.6732 1.6514,-1.6514 2.6733,-3.9336 2.6733,-6.454 0,-2.5203 -1.0219,-4.8025 -2.6733,-6.4539 z" />
  </g>
</svg>
